<svg version="1.1" id="Layer_1" xmlns="http://www.w3.org/2000/svg" xmlns:xlink="http://www.w3.org/1999/xlink" x="0px" y="0px"
	 width="50px" viewBox="0 0 202 151" enable-background="new 0 0 202 151" xml:space="preserve">
<path fill="#0d6efd" opacity="1.000000" stroke="none" 
	d="
M4.000000,1.000000 
	C56.020893,1.000000 108.041786,1.000000 160.530746,1.468657 
	C160.998810,17.431736 161.070190,32.926777 160.935043,48.420021 
	C160.909821,51.312672 161.821289,52.889076 164.416458,54.226818 
	C171.812805,58.039440 179.053619,62.154987 186.337357,66.184380 
	C190.338486,68.397827 194.302811,70.677864 198.871002,73.259811 
	C187.023056,79.787666 176.006134,85.991867 164.841278,91.917343 
	C161.950882,93.451347 160.880539,95.169380 160.913940,98.485458 
	C161.086823,115.643974 160.979858,132.805313 160.506805,150.028320 
	C121.152184,150.113480 82.261208,150.153381 43.370235,150.148788 
	C30.243652,150.147232 17.117079,150.032883 3.842168,149.797882 
	C3.487010,149.403290 3.264719,149.197632 2.959576,148.543564 
	C2.872409,107.521011 2.840243,66.963585 2.843263,26.406164 
	C2.843869,18.265774 2.978291,10.125391 3.220671,1.832114 
	C3.611934,1.469314 3.815158,1.242907 4.000000,1.000000 
M92.624054,100.785927 
	C94.402664,102.374672 96.181267,103.963425 98.457497,105.996666 
	C101.281662,101.355507 103.521423,97.290100 106.146942,93.491295 
	C107.988068,90.827408 107.670509,88.938599 105.034645,87.354713 
	C100.996758,84.928383 100.946007,81.483398 101.245811,77.136108 
	C102.365364,60.902214 96.368263,47.923244 82.359138,39.001003 
	C79.831078,37.390907 77.736237,37.344521 75.041550,38.812637 
	C62.245255,45.784328 53.953526,61.695553 55.736099,77.196671 
	C56.235317,81.537827 55.875809,84.881241 51.958363,87.464348 
	C50.835258,88.204903 49.463638,90.541710 49.852440,91.282692 
	C52.430756,96.196518 55.457027,100.875282 58.512959,105.920128 
	C60.173229,104.610481 61.281464,104.067841 61.912910,103.184402 
	C66.020210,97.438026 71.598351,95.549484 78.411301,96.503059 
	C79.881378,96.708824 81.416916,96.655800 82.901314,96.509308 
	C86.652512,96.139137 89.811760,97.081596 92.624054,100.785927 
z"/>
<path fill="#FBFDFE" opacity="1.000000" stroke="none" 
	d="
M92.359146,100.518745 
	C89.811760,97.081596 86.652512,96.139137 82.901314,96.509308 
	C81.416916,96.655800 79.881378,96.708824 78.411301,96.503059 
	C71.598351,95.549484 66.020210,97.438026 61.912910,103.184402 
	C61.281464,104.067841 60.173229,104.610481 58.512959,105.920128 
	C55.457027,100.875282 52.430756,96.196518 49.852440,91.282692 
	C49.463638,90.541710 50.835258,88.204903 51.958363,87.464348 
	C55.875809,84.881241 56.235317,81.537827 55.736099,77.196671 
	C53.953526,61.695553 62.245255,45.784328 75.041550,38.812637 
	C77.736237,37.344521 79.831078,37.390907 82.359138,39.001003 
	C96.368263,47.923244 102.365364,60.902214 101.245811,77.136108 
	C100.946007,81.483398 100.996758,84.928383 105.034645,87.354713 
	C107.670509,88.938599 107.988068,90.827408 106.146942,93.491295 
	C103.521423,97.290100 101.281662,101.355507 98.457497,105.996666 
	C96.181267,103.963425 94.402664,102.374672 92.359146,100.518745 
M76.085083,61.079666 
	C72.713158,62.825562 71.114922,65.551537 72.399178,69.219925 
	C73.561226,72.539246 76.174919,74.350632 79.768631,73.496826 
	C83.436020,72.625526 85.579605,70.042328 84.888275,66.208321 
	C84.121437,61.955589 81.187172,60.194160 76.085083,61.079666 
z"/>
<path fill="#1584E7" opacity="1.000000" stroke="none" 
	d="
M3.842168,149.797867 
	C3.689546,149.825317 3.388589,149.680573 3.057297,149.272247 
	C3.264719,149.197632 3.487010,149.403290 3.842168,149.797867 
z"/>
<path fill="#268CE6" opacity="1.000000" stroke="none" 
	d="
M76.481979,60.971981 
	C81.187172,60.194160 84.121437,61.955589 84.888275,66.208321 
	C85.579605,70.042328 83.436020,72.625526 79.768631,73.496826 
	C76.174919,74.350632 73.561226,72.539246 72.399178,69.219925 
	C71.114922,65.551537 72.713158,62.825562 76.481979,60.971981 
z"/>
</svg>